<?xml version="1.0" standalone="no"?>
<!DOCTYPE svg PUBLIC "-//W3C//DTD SVG 20010904//EN"
 "http://www.w3.org/TR/2001/REC-SVG-20010904/DTD/svg10.dtd">
<svg version="1.0" xmlns="http://www.w3.org/2000/svg"
 width="700.000000pt" height="700.000000pt" viewBox="0 0 700.000000 700.000000"
 preserveAspectRatio="xMidYMid meet">
<metadata>
Created by potrace 1.14, written by Peter Selinger 2001-2017
</metadata>
<g transform="translate(0.000000,700.000000) scale(0.100000,-0.100000)"
fill="#000000" stroke="none">
<path d="M0 3500 l0 -3500 3500 0 3500 0 0 3500 0 3500 -3500 0 -3500 0 0
-3500z m6565 0 l0 -3065 -3065 0 -3065 0 -3 3055 c-1 1680 0 3061 3 3068 3 10
622 12 3067 10 l3063 -3 0 -3065z"/>
<path d="M2311 5749 c-514 -54 -885 -267 -1055 -606 -157 -314 -130 -732 67
-1023 154 -227 420 -401 760 -497 53 -15 97 -30 97 -33 0 -4 -25 -17 -55 -29
-150 -62 -315 -205 -464 -401 -99 -130 -1031 -1427 -1031 -1435 0 -3 145 -4
322 -3 l321 3 419 610 c230 336 447 646 482 690 75 94 180 199 255 255 135
101 325 159 524 160 l67 0 0 -860 0 -860 465 0 465 0 0 860 0 860 78 0 c354 0
587 -120 835 -431 34 -42 255 -350 490 -683 l428 -606 330 0 c181 0 329 2 329
5 0 7 -902 1229 -1028 1393 -107 141 -230 269 -316 332 -61 44 -221 130 -243
130 -7 0 -13 4 -13 8 0 5 26 15 58 22 103 23 285 91 395 147 274 140 470 351
554 598 98 288 59 629 -99 870 -193 295 -557 476 -1052 524 -134 13 -2260 13
-2385 0z m709 -1149 l0 -730 -237 0 c-268 0 -372 12 -518 61 -138 46 -227 101
-331 204 -75 75 -98 105 -132 175 -56 116 -75 200 -76 340 0 84 5 131 18 175
71 237 252 395 534 466 122 30 200 36 480 38 l262 1 0 -730z m1565 719 c138
-17 270 -54 375 -106 76 -38 111 -63 176 -128 128 -127 174 -242 174 -441 0
-347 -202 -602 -568 -718 -145 -46 -243 -56 -529 -56 l-263 0 0 730 0 730 273
0 c149 0 313 -5 362 -11z"/>
</g>
</svg>
